# ProBuilder 4.5.2
# https://unity3d.com/unity/features/worldbuilding/probuilder
# 12/05/2023 16:03:30

mtllib ./FloorBasic00_1X1.mtl
o FloorBasic00_1X1

g FloorBasic00_1X1
v 0 0.5 0
v 0 0 0
v -1 0 0
v -1 0.5 0
v -1 0 -1
v -1 0.5 -1
v 0 0 -1
v 0 0.5 -1

vt 0.125 0.0625
vt 0.125 0
vt 0 0
vt 0 0.0625
vt 0 0.125
vt 0.125 0.125

vn 0 0 1
vn -1 0 0
vn 0 0 -1
vn 1 0 0
vn 0 1 0
vn 0 -1 0

usemtl BrickDamaged00b
f 4/4/1 3/3/1 2/2/1 1/1/1
f 6/4/2 5/3/2 3/2/2 4/1/2
f 8/4/3 7/3/3 5/2/3 6/1/3
f 1/4/4 2/3/4 7/2/4 8/1/4

usemtl PavementDirtTiles00b
f 6/2/5 4/6/5 1/5/5 8/3/5

usemtl PlasterPannelsDirt00
f 3/5/6 5/3/6 7/2/6 2/6/6

