# ProBuilder 4.5.2
# https://unity3d.com/unity/features/worldbuilding/probuilder
# 12/05/2023 15:59:08

mtllib ./FloorBasic00_5x2.5.mtl
o FloorBasic00_5x2.5

g FloorBasic00_5x2.5
v 0 0.5 0
v 0 0 0
v -2.5 0 0
v -2.5 0.5 0
v -2.5 0 -5
v -2.5 0.5 -5
v 0 0 -5
v 0 0.5 -5

vt 0.5 1
vt 0.5 0.9
vt 0 0.9
vt 0 1
vt 0.5 0.95
vt 0 0.95
vt 0 0.5
vt 0.25 1
vt 0.25 0.5

vn 0 0 1
vn -1 0 0
vn 0 0 -1
vn 1 0 0
vn 0 1 0
vn 0 -1 0

usemtl BrickDamaged00b
f 4/4/1 3/3/1 2/2/1 1/1/1
f 6/4/2 5/6/2 3/5/2 4/1/2
f 8/4/3 7/3/3 5/2/3 6/1/3
f 1/4/4 2/6/4 7/5/4 8/1/4

usemtl PavementDirtTiles00b
f 6/9/5 4/8/5 1/4/5 8/7/5

usemtl PlasterPannelsDirt00
f 3/4/6 5/7/6 7/9/6 2/8/6

