# ProBuilder 4.5.2
# https://unity3d.com/unity/features/worldbuilding/probuilder
# 12/05/2023 16:04:14

mtllib ./FloorBasic00_0.5x5.mtl
o FloorBasic00_0.5x5

g FloorBasic00_0.5x5
v 0 0.5 0
v 0 0 0
v -0.5 0 0
v -0.5 0.5 0
v -0.5 0 -5
v -0.5 0.5 -5
v 0 0 -5
v 0 0.5 -5

vt 0.0625 1
vt 0.0625 0.9375
vt 0 0.9375
vt 0 1
vt 0.625 1
vt 0.625 0.9375
vt 0.375 0.0625
vt 1 0.0625
vt 1 0
vt 0.375 0
vt 0.0625 0.375
vt 0 0.375

vn 0 0 1
vn -1 0 0
vn 0 0 -1
vn 1 0 0
vn 0 1 0
vn 0 -1 0

usemtl BrickDamaged00b
f 4/4/1 3/3/1 2/2/1 1/1/1
f 6/4/2 5/3/2 3/6/2 4/5/2
f 8/4/3 7/3/3 5/2/3 6/1/3
f 1/4/4 2/3/4 7/6/4 8/5/4

usemtl PavementDirtTiles00b
f 6/10/5 4/9/5 1/8/5 8/7/5

usemtl PlasterPannelsDirt00
f 3/4/6 5/12/6 7/11/6 2/1/6

