# ProBuilder 4.5.2
# https://unity3d.com/unity/features/worldbuilding/probuilder
# 12/05/2023 16:21:18

mtllib ./Wall_Simple_2Sides_0.5x3.mtl
o Wall_Simple_2Sides_0.5x3

g Wall_Simple_2Sides_0.5x3
v -0.5 3 0
v -0.5 0 0
v -0.5 0 -0.5
v -0.5 3 -0.5
v 0 0 -0.5
v 0 3 -0.5
v 0 3 0
v 0 0 0

vt 0.0625 1
vt 0.0625 0.625
vt 0 0.625
vt 0 1
vt 0 0.9375
vt 0.0625 0.9375
vt 0.125 1
vt 0.125 0.625

vn -1 0 0
vn 0 0 -1
vn 0 1 0
vn 0 -1 0
vn 0 0 1
vn 1 0 0

usemtl Concrete01
f 4/6/3 1/1/3 7/4/3 6/5/3

usemtl PlasterPannelsDirt00
f 2/4/4 3/5/4 5/6/4 8/1/4

usemtl ConcretePannelsPerforated00b
f 4/4/1 3/3/1 2/2/1 1/1/1
f 6/4/2 5/3/2 3/2/2 4/1/2

usemtl PlasterDirt00
f 1/4/5 2/3/5 8/2/5 7/1/5
f 7/1/6 8/2/6 5/8/6 6/7/6

