# ProBuilder 4.5.2
# https://unity3d.com/unity/features/worldbuilding/probuilder
# 12/05/2023 16:25:29

mtllib ./Wall_Simple_2Sides_5x3.mtl
o Wall_Simple_2Sides_5x3

g Wall_Simple_2Sides_5x3
v 0 3 -0.5
v 0 3 0
v -5 3 0
v -5 3 -0.5
v 0 0 0
v 0 0 -0.5
v -5 0 -0.5
v -5 0 0

vt 0 0.9375
vt 0 1
vt 0.625 1
vt 0.625 0.9375
vt 0.0625 1
vt 0.0625 0.625
vt 0 0.625
vt 0.625 0.625
vt 0.9999998 1.192139
vt 0.9999998 0.817139
vt 0.3749998 0.817139
vt 0.3749998 1.192139

vn 0 1 0
vn 0 -1 0
vn -1 0 0
vn 0 0 -1
vn 0 0 1
vn 1 0 0

usemtl Concrete01
f 4/4/1 3/3/1 2/2/1 1/1/1

usemtl PlasterPannelsDirt00
f 8/2/2 7/1/2 6/4/2 5/3/2

usemtl ConcretePannelsPerforated00
f 4/2/3 7/7/3 8/6/3 3/5/3
f 1/2/4 6/7/4 7/8/4 4/3/4

usemtl PlasterDirt00
f 3/12/5 8/11/5 5/10/5 2/9/5
f 2/2/6 5/7/6 6/6/6 1/5/6

