# ProBuilder 4.5.2
# https://unity3d.com/unity/features/worldbuilding/probuilder
# 12/05/2023 17:05:43

mtllib ./Wall_Simple_WideGate00_5x3.mtl
o Wall_Simple_WideGate00_5x3

g default
v -1.5 3 0.25
v -1.818233 2.473046 0.25
v -1.928239 2.473046 0.25
v 1.5 3 -0.25
v 1.818233 2.473046 -0.25
v 1.928239 2.473046 -0.25
v 1.437883 0.079455 -0.140806
v 1.598515 9.5E-05 -0.25
v 1.445129 0.470771 -0.25
v -1.598515 9.5E-05 -0.25
v -1.437883 0.079455 -0.140806
v -1.445129 0.470771 -0.25
v -1.437883 0.079455 0.140806
v -1.598515 9.5E-05 0.25
v -1.445129 0.470771 0.25
v 1.598515 9.5E-05 0.25
v 1.437883 0.079455 0.140806
v 1.445129 0.470771 0.25
v -1.26608 2.920546 -0.180932
v -1.334247 2.959507 -0.25
v -1.283491 2.865032 -0.25
v 1.334247 2.959507 -0.25
v 1.26608 2.920546 -0.180932
v 1.283491 2.865032 -0.25
v 1.26608 2.920546 0.180932
v 1.334247 2.959507 0.25
v 1.283491 2.865032 0.25
v -1.334247 2.959507 0.25
v -1.26608 2.920546 0.180932
v -1.283491 2.865032 0.25
v -1.38881 2.529229 0.25
v -1.405097 3 0.25
v -1.626968 2.416863 0.25
v -1.626968 0.583136 0.25
v -1.818016 0.526954 0.25
v 1.38881 2.529229 0.25
v 1.626968 2.416863 0.25
v 1.818233 2.473046 0.25
v 1.626968 0.583136 0.25
v 1.818016 0.526954 0.25
v 1.38881 2.529229 -0.25
v 1.405097 3 -0.25
v 1.626968 2.416863 -0.25
v 1.626968 0.583136 -0.25
v 1.818016 0.526954 -0.25
v -1.38881 2.529229 -0.25
v -1.626968 2.416863 -0.25
v -1.818233 2.473046 -0.25
v -1.626968 0.583136 -0.25
v -1.818016 0.526954 -0.25
v -2.5 2.473046 0.25
v -2.5 3 0.25
v -2.5 0.526954 0.25
v -1.928239 0.526954 0.25
v -2.5 0 0.25
v -1.682505 0 0.25
v 2.5 0.526954 0.25
v 2.5 0 0.25
v 1.682505 0 0.25
v 1.928239 0.526954 0.25
v 2.5 2.473046 0.25
v 1.928239 2.473046 0.25
v 2.5 3 0.25
v 1.5 3 0.25
v -2.5 2.473046 -0.25
v -2.5 3 -0.25
v -2.5 0.526954 -0.25
v -2.5 0 -0.25
v 2.5 0 -0.25
v 1.682505 0 -0.25
v -1.682505 0 -0.25
v -1.5 3 -0.25
v 1.405097 3 0.25
v -1.405097 3 -0.25
v 2.5 3 -0.25
v -1.928239 0.526954 -0.25
v 1.928239 0.526954 -0.25
v -1.928239 2.473046 -0.25
v 1.626969 0.583136 0.124111
v 1.445129 0.470771 0.124365
v -1.445129 0.470771 0.124365
v -1.626969 0.583136 0.124111
v -1.626969 0.583136 -0.124111
v -1.445129 0.470771 -0.124365
v 1.445129 0.470771 -0.124365
v 1.626969 0.583136 -0.124111
v 1.626969 2.392409 0.120444
v 1.626969 2.392409 -0.120444
v -1.626969 2.392409 0.120444
v -1.626969 2.392409 -0.120444
v 1.438577 0.099818 -0.070475
v 1.438577 0.099818 0.070475
v -1.438577 0.099818 -0.070475
v -1.438577 0.099818 0.070475
v 2.066968 0.476055 0.124111
v 1.882835 0.3619079 0.1250305
v 2.066968 2.392409 0.120444
v -1.883242 0.362523 0.124365
v -2.066969 0.476055 0.124111
v -2.066968 2.392409 0.120444
v -2.066969 0.476055 -0.124111
v -1.883242 0.362523 -0.124365
v -2.066968 2.392409 -0.120444
v 1.883377 0.3631395 -0.123703
v 2.066969 0.476055 -0.124111
v 2.066968 2.392409 -0.120444
v 1.878536 0.09667034 0.06980896
v 1.878845 0.09736822 -0.07113647
v -1.878552 0.09702 -0.070475
v -1.878552 0.09702 0.070475
v 2.5 2.473046 -0.25
v 2.5 0.526954 -0.25

vt 0.05352986 0.06586933
vt 0.01375079 0
vt 0 0
vt 0.02419353 0.01012661
vt 0.01489723 0.06005985
vt 0.02419353 0
vt 0 0.01012661
vt 0.009296298 0.06005986
vt 0 0.007591009
vt 0.01193643 0.01291847
vt 0.008354902 0
vt 0 0.01291847
vt 0.01193643 0.007591009
vt 0.003581524 0
vt 0.006820321 0.05378485
vt 0.01316476 0.0419755
vt 0.008856297 0.05378485
vt 0.002035856 0
vt 0 0.05884647
vt 0 0.007022858
vt 0.0536778 0.01404572
vt 0.02390814 0
vt 0 0.2362387
vt 0.02390814 0.2292159
vt 0 0.2432616
vt 0.02390814 0.007022738
vt 0.006344438 0.05378485
vt 0.01316476 0
vt 0 0.0419755
vt 0.02976966 0
vt 0 0.01404572
vt 0.0536778 0.007022858
vt 0.02272987 0.0140456
vt 0.04661083 0.007022858
vt 0 0.06585738
vt 0.125 0.06586933
vt 0.07147014 0
vt 0.07147026 0.2432616
vt 0.07147002 0.06586926
vt 0.1021867 0
vt 0.1021867 0.06586926
vt 0.03071666 0.06586926
vt 0.01693881 0.06586926
vt 0.125 0
vt 0.05352986 0
vt 0.0625 0.06586933
vt 0.0625 0
vt 0.0625 0.2432616
vt 0 0.0625
vt 0.1021867 0.0625
vt 0.01049876 0.0625
vt 0.01049876 0
vt 0.3001856 0.53125
vt 0.6998144 0.53125
vt 0.6998144 0.46875
vt 0.3001856 0.46875
vt 0.125 0.0625
vt 0.3243629 0.53125
vt 0.6756371 0.53125
vt 0.6756371 0.46875
vt 0.3243629 0.46875
vt 0.01375079 0.2432616
vt 0.04121542 1.187623E-05
vt 0.01377785 0.06586926
vt 0.03071666 0
vt 0.06539273 0
vt 0.05164206 0
vt 0.01186287 0.06586933
vt 0.01186275 0.0625
vt 0.01186275 0
vt 0.6756371 0.5025308
vt 0.3332191 0.4974692
vt 0.3243629 0.5025308
vt 0.6667809 0.4974692
vt 0.04661083 0.05883452
vt 0.02388096 0.07288015
vt 0.02743757 0
vt 0.008856297 0.06586933
vt 0.006820321 0.007022858
vt 0 0.0608077
vt 0.06049824 0
vt 0.02390814 0.2432616
vt 0.0625 0.04399157
vt 0 0.04399157
vt 0.0086335 0.00727272
vt 0.0329169 0.0625
vt 0.0329169 0
vt 0.02671957 0.01573613
vt 1.192093E-07 0.01573613
vt 0.02671957 3.175437E-05
vt 0 0.2261591
vt 0.01619449 0
vt 0.01619449 0.2292159
vt 0.0625 0.003056526
vt 0.0463055 0
vt 0 0.003056526
vt 0.01573612 0
vt 0 0.2292159
vt 0.01619449 0.2261591
vt 0.02244061 0.002546489
vt 0 0.04892287
vt 0.01570436 0.04892287
vt 0.02641013 0.002546847
vt 0.008791376 0.002546847
vt 0.0352015 0
vt 0.006732449 0.04892272
vt 0.00879167 0
vt 0 0.002545804
vt 0.02243665 0.04892403
vt 0.07772994 0.01353103
vt 0.02296579 0
vt 0.05499995 0.02757668
vt 0 0.2395447
vt 0.05500007 0.01338518
vt 0.05499983 0.2395449
vt 0.02272999 0.02757668
vt 0.05476415 0
vt 0 0.01353103
vt 0.07772994 0.01419154
vt 0 0.01338518
vt 0.05500007 0.2395447
vt 0 0.030111
vt 0.05499983 0.030111
vt 0 0.01761875
vt 0.05499792 0.01761875
vt 0.0008251667 0.0472092
vt 0.0555892 0.03381145
vt 0.05578828 0.0006271601
vt 0 0.03380656
vt 0.05472922 0.0474782
vt 0.000826478 0
vt 0.18348 0.5099124
vt 0.81652 0.5099124
vt 0.8335618 0.4900876
vt 0.1664383 0.4900876
vt 0.81652 0.4900876
vt 0.18348 0.4900876
vt 0.1664383 0.5099124
vt 0.8335618 0.5099124
vt 0.81652 0.454767
vt 0.18348 0.454767
vt 0.18348 0.545233
vt 0.81652 0.545233
vt 1.218941 0.429597
vt -0.2189415 0.429597
vt -0.2189415 0.570403
vt 1.218941 0.570403
vt -0.2189415 0.5077093
vt 1.218941 0.5077091
vt 1.299258 0.4402159
vt -0.2992575 0.4402162
vt 1.218941 0.4662534
vt -0.2189415 0.4662534
vt -0.2992575 0.5337466
vt 1.299258 0.5337466
vt 0.5155456 0.5165966
vt 0.5088094 0.4834035
vt 0.4911906 0.4834035
vt 0.4844544 0.5165966
vt 0.4844861 0.3802279
vt 0.4849445 0.6197721
vt 0.5150555 0.6197721
vt 0.5155139 0.3802279
vt 0.4844544 0.4865016
vt 0.4844861 0.5134984
vt 0.5155138 0.5134984
vt 0.5155457 0.4865017
vt 0.02743769 0.06586926
vt 0.05164194 0.06586933
vt 0.03977907 0.06586933

vn 0 0 1
vn 0 0 -1
vn -0.616684 -0.2009678 -0.761126
vn 0.616684 -0.2009677 -0.761126
vn 0.616684 -0.2009678 0.761126
vn -0.616684 -0.2009677 0.761126
vn 0.754562 0.4053826 -0.5160439
vn -0.754562 0.4053826 -0.5160439
vn -0.754562 0.4053826 0.5160439
vn 0.754562 0.4053826 0.5160439
vn -1 0 0
vn -0.0005655434 -0.9999998 0
vn 0 -1 0
vn 0.0005655434 -0.9999998 0
vn 0 1 0
vn 0.9541716 -0.29926 0
vn -0.9541716 -0.29926 0
vn 0.4267035 -0.9043916 0
vn -0.4267035 -0.9043916 0
vn -0.5256703 0.8506883 -1.991116E-06
vn 0.5256703 0.8506883 -1.991109E-06
vn 1 -1.950318E-05 -3.73345E-06
vn -0.9996518 0.02636667 0.00104232
vn -0.9998236 0.01866829 0.00208458
vn -0.9998441 0.01765981 0
vn -0.9996368 0.02687082 0.002084633
vn -0.9996543 0.02619365 -0.002280866
vn -0.999655 0.02624157 -0.001140432
vn -0.9998278 0.01841803 -0.002280795
vn -0.9998286 0.01851388 0
vn 0.999655 0.02624157 0.001140432
vn 0.9998278 0.01841803 0.002280795
vn 0.9998286 0.01851388 0
vn 0.9996543 0.02619365 0.002280866
vn 0.9996368 0.02687082 -0.002084633
vn 0.9996518 0.02636667 -0.00104232
vn 0.9998236 0.01866829 -0.00208458
vn 0.9998441 0.01765981 0
vn -0.0004177032 -0.003237035 -0.9999947
vn -0.0003697175 -0.004560546 -0.9999895
vn -0.000344739 -0.007499248 -0.9999718
vn -0.0003137683 -0.001795977 -0.9999983
vn 0 -0.002026775 -0.999998
vn 0.0004302395 -0.001761776 0.9999983
vn 0 -0.002026775 0.999998
vn -0.0004586701 -0.0003332575 0.9999998
vn -0.0004240905 0.001360263 0.999999
vn -0.00147822 0.0001316648 0.9999989
vn 0.006362926 0.9999733 0.002481752
vn 0.007154257 0.9999744 0
vn 0.005571594 0.9999722 0.004963503
vn -0.006359322 0.9999798 0
vn 0.02411166 0.1683982 0.984862
vn 0.002286569 0.1437254 0.989615
vn 0.04593676 0.193071 0.9801089
vn -0.01830641 0.1709797 0.984551
vn -0.03534796 0.143064 0.989082
vn -0.001264862 0.1988955 0.9800199
vn -0.02489924 0.1707997 -0.9843132
vn -0.0009141651 0.1437495 -0.9896137
vn -0.04888432 0.1978499 -0.9790127
vn 0.01852605 0.1734257 -0.9840157
vn 0.03707593 0.1430251 -0.9890243
vn -2.38179E-05 0.2038263 -0.9790071
vn 0 -0.8709812 -0.4913164
vn 0 -0.8709812 0.4913164
vn 0 0.8089257 -0.5879109
vn 0 0.8089257 0.5879109
vn -0.9998593 0.01664029 -0.002102325
vn -0.5253787 0.8508639 0.001529475
vn -0.5238817 0.851791 -2.012765E-06
vn -0.5268757 0.8499368 0.003060964

usemtl PlasterDirt00
f 3/37/1 1/36/1 52/35/1 51/3/1
f 54/37/1 3/38/1 51/25/1 53/3/1
f 56/40/1 54/39/1 53/35/1 55/3/1
f 60/42/1 59/3/1 58/40/1 57/41/1
f 62/25/1 60/3/1 57/37/1 61/38/1
f 64/35/1 62/45/1 61/44/1 63/36/1
f 8/3/12 70/52/12 59/51/12 16/49/12
f 71/3/14 10/52/14 14/51/14 56/49/14
f 111/47/22 75/46/22 63/35/22 61/3/22
f 112/47/22 111/48/22 61/25/22 57/3/22
f 69/47/22 112/46/22 57/35/22 58/3/22

usemtl Concrete01
f 70/3/12 69/40/13 58/50/13 59/49/12
f 10/56/14 8/55/12 16/54/12 14/53/14
f 68/3/13 71/40/14 56/50/14 55/49/13
f 72/3/15 66/44/15 52/57/15 1/49/15
f 42/61/15 74/60/15 32/59/15 73/58/15
f 75/3/15 4/44/15 64/57/15 63/49/15

usemtl Concrete_Lgt_4
f 3/3/1 2/2/1 1/1/1
f 6/3/2 5/2/2 4/1/2
f 40/43/1 59/3/1 60/42/1
f 50/43/2 71/3/2 76/42/2
f 10/3/2 71/52/2 50/168/2
f 4/170/2 5/3/2 42/169/2
f 1/170/1 2/3/1 32/169/1
f 16/3/1 59/52/1 40/168/1
f 35/2/1 2/62/1 3/25/1
f 3/25/1 54/3/1 35/2/1
f 14/63/1 35/64/1 54/35/1
f 54/35/1 56/65/1 14/63/1
f 73/35/1 38/67/1 62/66/1
f 62/66/1 64/68/1 73/35/1
f 38/25/1 40/3/1 60/2/1
f 60/2/1 62/62/1 38/25/1
f 45/2/2 5/62/2 6/25/2
f 6/25/2 77/3/2 45/2/2
f 8/63/2 45/64/2 77/35/2
f 77/35/2 70/65/2 8/63/2
f 74/35/2 48/67/2 78/66/2
f 78/66/2 72/68/2 74/35/2
f 48/25/2 50/3/2 76/2/2
f 76/2/2 78/62/2 48/25/2
f 74/3/15 72/70/15 1/69/15
f 1/69/15 32/49/15 74/3/15
f 4/3/15 42/70/15 73/69/15
f 73/69/15 64/49/15 4/3/15
f 110/158/38 109/157/38 102/156/38
f 102/156/38 98/159/38 110/158/38
f 96/156/69 104/159/69 108/158/69
f 108/158/69 107/157/69 96/156/69
f 97/162/11 106/161/11 105/160/11
f 105/160/11 95/163/11 97/162/11
f 95/166/70 105/165/71 104/164/70
f 104/164/70 96/167/72 95/166/70
f 98/164/21 102/167/21 101/166/21
f 101/166/21 99/165/21 98/164/21
f 99/160/22 101/163/22 103/162/22
f 103/162/22 100/161/22 99/160/22

usemtl MetalBare01
f 9/5/3 8/3/3 7/4/3
f 12/8/4 11/7/4 10/6/4
f 15/5/5 14/3/5 13/4/5
f 18/8/6 17/7/6 16/6/6
f 21/11/7 20/10/7 19/9/7
f 24/14/8 23/13/8 22/12/8
f 27/11/9 26/10/9 25/9/9
f 30/14/10 29/13/10 28/12/10
f 30/16/1 28/15/1 31/3/1
f 32/19/1 31/18/1 28/17/1
f 33/22/1 31/21/1 2/20/1
f 33/24/1 2/23/1 34/22/1
f 34/26/1 2/25/1 35/3/1
f 27/29/1 36/28/1 26/27/1
f 38/32/1 36/31/1 37/30/1
f 18/3/1 40/34/1 39/33/1
f 24/16/2 22/15/2 41/3/2
f 22/17/2 42/19/2 41/18/2
f 43/22/2 41/21/2 5/20/2
f 43/24/2 5/23/2 44/22/2
f 44/26/2 5/25/2 45/3/2
f 21/29/2 46/28/2 20/27/2
f 48/32/2 46/31/2 47/30/2
f 12/3/2 50/34/2 49/33/2
f 50/168/2 12/19/2 10/3/2
f 5/3/2 41/32/2 42/169/2
f 2/3/1 31/32/1 32/169/1
f 40/168/1 18/19/1 16/3/1
f 73/71/1 32/73/1 28/72/1
f 28/72/1 26/74/1 73/71/1
f 15/75/1 34/76/1 35/35/1
f 35/35/1 14/77/1 15/75/1
f 73/78/1 26/80/1 36/79/1
f 36/79/1 38/81/1 73/78/1
f 40/22/1 38/82/1 37/23/1
f 37/23/1 39/20/1 40/22/1
f 31/3/16 46/47/16 21/83/16
f 21/83/16 30/84/16 31/3/16
f 30/3/16 21/47/16 19/32/16
f 19/32/16 29/85/16 30/3/16
f 41/3/17 36/47/17 27/83/17
f 27/83/17 24/84/17 41/3/17
f 24/3/17 27/47/17 25/32/17
f 25/32/17 23/85/17 24/3/17
f 31/86/18 33/49/18 47/3/18
f 47/3/18 46/87/18 31/86/18
f 74/71/2 42/73/2 22/72/2
f 22/72/2 20/74/2 74/71/2
f 9/75/2 44/76/2 45/35/2
f 45/35/2 8/77/2 9/75/2
f 37/86/19 36/49/19 41/3/19
f 41/3/19 43/87/19 37/86/19
f 18/88/20 39/89/20 79/3/20
f 79/3/20 80/90/20 18/88/20
f 34/88/21 15/89/21 81/3/21
f 81/3/21 82/90/21 34/88/21
f 12/3/21 49/90/21 83/88/21
f 83/88/21 84/89/21 12/3/21
f 44/3/20 9/90/20 85/88/20
f 85/88/20 86/89/20 44/3/20
f 87/91/11 79/3/11 39/92/11
f 39/92/11 37/93/11 87/91/11
f 88/92/11 87/95/11 37/94/11
f 37/94/11 43/96/11 88/92/11
f 86/97/11 88/99/11 43/98/11
f 43/98/11 44/3/11 86/97/11
f 33/98/22 34/3/22 82/97/22
f 82/97/22 89/99/22 33/98/22
f 47/94/22 33/96/22 89/92/22
f 89/92/22 90/95/22 47/94/22
f 49/92/22 47/93/22 90/91/22
f 90/91/22 83/3/22 49/92/22
f 91/100/23 85/102/25 9/101/24
f 9/101/24 7/2/26 91/100/23
f 92/103/27 91/104/23 7/3/26
f 7/3/26 17/105/28 92/103/27
f 80/106/29 92/108/27 17/107/28
f 17/107/28 18/109/30 80/106/29
f 11/107/31 12/109/33 84/106/32
f 84/106/32 93/108/34 11/107/31
f 13/3/35 11/105/31 93/103/34
f 93/103/34 94/104/36 13/3/35
f 15/101/37 13/2/35 94/100/36
f 94/100/36 81/102/38 15/101/37
f 95/31/39 96/111/41 80/110/40
f 80/110/40 79/112/42 95/31/39
f 97/113/42 95/3/39 79/114/42
f 79/114/42 87/115/43 97/113/42
f 82/116/42 81/118/42 98/117/42
f 98/117/42 99/119/42 82/116/42
f 89/113/42 82/120/42 99/117/42
f 99/117/42 100/121/42 89/113/42
f 101/31/44 102/111/44 84/110/44
f 84/110/44 83/112/44 101/31/44
f 103/113/44 101/3/44 83/114/44
f 83/114/44 90/115/45 103/113/44
f 86/116/46 85/118/48 104/117/47
f 104/117/47 105/119/46 86/116/46
f 88/113/44 86/120/46 105/117/46
f 105/117/46 106/121/44 88/113/44
f 87/122/13 88/3/13 106/117/13
f 106/117/13 97/123/13 87/122/13
f 90/117/13 89/123/13 100/122/13
f 100/122/13 103/3/13 90/117/13
f 91/117/49 92/125/50 107/124/49
f 107/124/49 108/3/51 91/117/49
f 94/124/52 93/3/52 109/117/52
f 109/117/52 110/125/52 94/124/52
f 85/126/53 91/3/54 108/117/53
f 108/117/53 104/127/55 85/126/53
f 93/128/56 84/130/57 102/129/56
f 102/129/56 109/131/58 93/128/56
f 81/126/59 94/3/60 110/117/59
f 110/117/59 98/127/61 81/126/59
f 92/128/62 80/130/63 96/129/62
f 96/129/62 107/131/64 92/128/62
f 48/81/2 74/78/2 20/80/2
f 20/80/2 46/79/2 48/81/2
f 50/22/2 48/82/2 47/23/2
f 47/23/2 49/20/2 50/22/2

usemtl BrickDamaged00b
f 51/47/11 52/46/11 66/35/11 65/3/11
f 53/47/11 51/48/11 65/25/11 67/3/11
f 55/47/11 53/46/11 67/35/11 68/3/11
f 68/40/2 67/41/2 76/42/2 71/3/2
f 6/37/2 4/36/2 75/35/2 111/3/2
f 77/37/2 6/38/2 111/25/2 112/3/2
f 70/40/2 77/39/2 112/35/2 69/3/2
f 78/25/2 76/3/2 67/37/2 65/38/2
f 72/35/2 78/45/2 65/44/2 66/36/2

usemtl MetalBare01_lgt_5
f 20/135/65 22/134/65 23/133/65 19/132/65
f 26/139/66 28/138/66 29/137/66 25/136/66
f 25/143/13 29/142/13 19/141/13 23/140/13

usemtl MetalDotsGrid02
f 13/147/15 17/146/15 7/145/15 11/144/15
f 8/151/67 10/150/67 11/149/67 7/148/67
f 14/155/68 16/154/68 17/153/68 13/152/68

